<svg id="Layer_1" data-name="Layer 1" xmlns="http://www.w3.org/2000/svg" viewBox="0 0 240 240"><defs><style>.cls-1,.cls-4{fill:#ff71a3;}.cls-1,.cls-2,.cls-3,.cls-5{fill-rule:evenodd;}.cls-2{fill:#333;}.cls-3{fill:#4ea6ea;}.cls-5,.cls-6{fill:#fff;}</style></defs><title>Artboard 1</title><path class="cls-1" d="M240,145.49V240H0V196.51Z"/><path class="cls-2" d="M0,197.37V95.14l240-51V146.36Z"/><path class="cls-3" d="M240,44.73,0,95.74V0H240Z"/><path class="cls-4" d="M100.81,168h22L154.15,40H132Z"/><path class="cls-5" d="M177.26,58v2.48a11.26,11.26,0,0,1-22.52,0V40H132V60.85C132,79.33,147.05,94,166,94c18.72,0,34-14.67,34-33.15V53.21Z"/><path class="cls-6" d="M40,158.11A42,42,0,1,0,81.94,116,41.85,41.85,0,0,0,40,158.11Zm62-.11A20,20,0,1,1,81.94,138,20.11,20.11,0,0,1,102,158Z"/></svg>