<svg xmlns="http://www.w3.org/2000/svg" xmlns:xlink="http://www.w3.org/1999/xlink" width="884" height="240" viewBox="0 0 221 60"><defs><path id="94qta" d="M185.7 118.163c-4.404 0-8.074-3.67-8.074-8.074s3.67-8.074 8.074-8.074 8.074 3.67 8.074 8.074-3.67 8.074-8.074 8.074zm0-18.35c-3.303 0-6.055 1.468-8.074 3.853v-2.752c0-.55-.55-1.101-1.1-1.101-.551 0-1.102.55-1.102 1.1v27.526c0 .551.55 1.102 1.101 1.102.55 0 1.101-.551 1.101-1.101v-11.928c1.835 2.385 4.771 3.853 8.074 3.853a10.26 10.26 0 0 0 10.277-10.276A10.26 10.26 0 0 0 185.7 99.813z"/><path id="94qtb" d="M200.564 108.988c.55-3.854 3.854-6.973 7.89-6.973 4.038 0 7.341 2.936 7.892 6.973zm8.074-9.175a10.26 10.26 0 0 0-10.276 10.276 10.26 10.26 0 0 0 10.276 10.276c.55 0 1.101-.55 1.101-1.1 0-.551-.55-1.102-1.1-1.102-4.038 0-7.34-2.936-7.891-6.973h18.35v-1.1c-.183-5.69-4.771-10.277-10.46-10.277z"/><path id="94qtc" d="M231.576 99.813c-3.303 0-6.055 1.468-8.074 3.853v-2.752c0-.55-.55-1.101-1.1-1.101-.551 0-1.102.55-1.102 1.1v18.351c0 .55.55 1.101 1.101 1.101.55 0 1.101-.55 1.101-1.1v-9.176c0-4.404 3.67-8.074 8.074-8.074s8.075 3.67 8.075 8.074v9.175c0 .55.55 1.101 1.1 1.101.551 0 1.102-.55 1.102-1.1v-9.176a10.26 10.26 0 0 0-10.277-10.276z"/><path id="94qtd" d="M158.175 118.163c-6.973 0-12.662-5.688-12.662-12.662 0-6.973 5.689-12.661 12.662-12.661 6.973 0 12.661 5.688 12.661 12.661 0 6.974-5.688 12.662-12.661 12.662zm0-27.525A14.802 14.802 0 0 0 143.31 105.5a14.802 14.802 0 0 0 14.864 14.864 14.802 14.802 0 0 0 14.864-14.864 14.802 14.802 0 0 0-14.864-14.863z"/><path id="94qte" d="M280.388 90.821c-.367-.367-1.1-.367-1.651 0l-10.643 10.643-10.644-10.643c-.367-.367-1.1-.367-1.651 0-.55.367-.367 1.101 0 1.652l11.01 11.01v15.598c0 .55.55 1.1 1.101 1.1.55 0 1.101-.55 1.101-1.1v-15.598l11.01-11.01c.918-.367.918-1.101.367-1.652z"/><path id="94qtf" d="M123.86 82.747c-10.093-4.404-22.021-3.487-31.196 2.569-9.175-6.056-21.103-6.973-31.196-2.386L60 83.481l.183 1.652c1.102 11.01 7.891 20.735 17.8 25.69-.55 11.01 4.588 21.837 13.396 28.26l1.285.917 1.284-.917c8.992-6.423 13.947-17.25 13.396-28.26 9.91-4.955 16.699-14.864 17.8-25.69l.183-1.652z"/><path id="94qtg" d="M92.664 113.209c-4.22 0-8.441-.918-12.479-2.57-.734 10.277 3.854 20.37 12.479 26.792 8.624-6.239 13.212-16.515 12.478-26.791-4.037 1.651-8.258 2.569-12.478 2.569z"/><path id="94qth" d="M93.581 87.518c3.487 2.57 6.423 5.872 8.441 9.542 2.019 3.67 3.487 7.707 4.038 12.112 9.175-4.588 15.78-13.58 16.882-24.223-9.726-4.404-20.736-3.303-29.36 2.57z"/><path id="94qti" d="M91.746 87.518c-8.441-5.689-19.635-6.973-29.36-2.569 1.1 10.643 7.707 19.635 16.882 24.223.55-4.405 1.835-8.442 4.037-12.112s4.955-6.973 8.441-9.542z"/></defs><g><g transform="translate(-60 -80)"><use fill="#fff" xlink:href="#94qta"/></g><g transform="translate(-60 -80)"><use fill="#fff" xlink:href="#94qtb"/></g><g transform="translate(-60 -80)"><use fill="#fff" xlink:href="#94qtc"/></g><g transform="translate(-60 -80)"><use fill="#fff" xlink:href="#94qtd"/></g><g transform="translate(-60 -80)"><use fill="#fff" xlink:href="#94qte"/></g><g transform="translate(-60 -80)"><use fill="#fff" xlink:href="#94qtf"/></g><g transform="translate(-60 -80)"><use fill="#f93549" xlink:href="#94qtg"/></g><g transform="translate(-60 -80)"><use fill="#f93549" xlink:href="#94qth"/></g><g transform="translate(-60 -80)"><use fill="#f93549" xlink:href="#94qti"/></g></g></svg>